<svg enable-background="new 0 0 686.818 1000" height="391.630225" viewBox="0 0 651.80104 1000" width="255.342907" xmlns="http://www.w3.org/2000/svg"><g stroke-width="1.000002"><path d="m196.92431 28.497756c34.09805-15.116024 70.56611-25.7200405 107.96417-27.70504356 60.7521-4.47200704 122.67519 10.05701556 174.84527 41.56706556 53.95309 32.21705 97.37916 81.758122 121.9282 139.654212 5.56401 12.87202 9.93801 26.20704 14.04702 39.62307-6.82401-4.00401-13.56102-8.21402-21.08803-10.74402-23.88104-8.70301-50.08608-7.97501-73.78512-17.28403-10.13702-3.945-19.46703-9.85501-27.58104-17.08003-24.87204-22.34103-45.51408-48.93307-70.62812-71.01011-16.31202-15.057017-34.10005-28.717038-53.78908-39.079055-30.53805-15.704024-65.8111-22.420035-99.94916-18.455029-10.66701 1.172002-21.93803 5.059008-32.40005.992002-7.36801-4.595007-10.88602-13.499021-18.59803-17.768028-6.27401-3.905006-13.96502-2.730004-20.96603-2.711004" fill="#a07eba"/><g fill="#682a8d"><path d="m50.83408 180.05099c21.269033-49.13408 56.11809-92.359141 99.68716-123.50419-4.10901 5.788009-9.08702 11.777018-8.94602 19.28403-.768 9.837016 8.23702 19.590031 2.24901 29.02004-6.96301 11.02802-17.08003 19.63003-24.42704 30.39605-19.10403 26.00404-29.343048 57.89609-30.841051 90.01314-2.023003 31.36705 2.670005 62.7551 9.896016 93.21115 5.889005 22.92903 11.496015 45.97907 14.590025 69.47311 14.00602-10.96702 27.50204-22.54404 41.97106-32.90405 20.68404-15.60503 42.84307-29.08205 64.84211-42.70207 23.04903-13.81902 46.44207-27.23704 71.11111-37.96306 5.90801-2.75201 12.28302-4.35101 18.78003-4.89801-7.14501 9.81702-18.57803 14.85402-28.51405 21.25003-37.07506 22.07704-73.21911 46.05808-105.88116 74.34912-26.91405 24.34604-53.02009 50.22908-72.73112 80.90713-12.282018 19.63003-23.738036 42.76107-19.244029 66.5581 2.752004 16.51603 19.083029 25.01404 33.328049 30.19405-28.998042-.424-58.078088 1.013-87.017133-.771-1.681003-3.50001-4.149007-6.93801-3.763006-11.00902.203-74.83512.079-149.67123.059-224.50635-.708001-43.24407 7.428012-86.73414 24.851039-126.3982"/><path d="m526.88683 278.38314c10.80702-1.133 22.72703-1.639 32.29905 4.41301 6.02901 3.43901 6.67801 11.21102 6.61501 17.42203.225 11.02902-4.47101 21.31103-9.79302 30.70105-11.51601 19.56703-27.60404 35.90005-44.31807 51.05808-29.78904 26.24504-62.99609 48.36407-97.33915 68.21611-45.69607 27.52204-96.02315 47.11207-148.01423 58.93009-25.76004 5.50401-52.20908 9.79701-78.59812 7.44901-7.54902-1.013-16.45403-2.188-21.22904-8.82501-3.725-10.07702 2.85301-20.15604 8.09401-28.39105 17.34403-24.71104 40.51507-44.56307 63.95011-63.3021 58.78709-45.69407 124.94019-81.27113 193.4423-110.04917 30.57905-12.28202 62.0061-23.59504 94.89115-27.62205m-302.66248 172.49828c19.73103 19.57003 50.34908 26.57204 76.59812 17.52502 19.60603-6.80001 36.18006-21.95703 44.19707-41.16206 8.66102-19.52903 7.64801-42.67907-1.357-61.9231-42.98407 23.63604-84.40913 51.01508-119.43819 85.56014"/><path d="m525.75383 401.96934c40.41406-33.71405 79.47112-72.59011 99.18215-122.39119.811 12.95002.666 25.94104.627 38.91206-.063 71.57911.102 143.15722-.063 214.73534.404 5.95001-5.381 10.30001-11.02701 9.51001-125.8142-.12-251.6444.325-377.4596-.222 61.5221-12.06002 120.28919-35.98106 174.88928-66.4571 40.23006-20.92404 78.61912-45.51208 113.85118-74.08712"/></g><path d="m327.08751 632.0027c12.64802-12.04102 29.34505-18.90203 46.38408-21.79703 21.28803-3.15701 44.05607-1.154 63.0171 9.67401 10.34201 5.64701 18.92203 13.92302 26.49204 22.88604-11.37602 8.98701-23.57804 16.82002-35.09006 25.60204-5.34401-6.94001-11.74002-13.65902-20.21903-16.59303-17.56603-6.61801-39.94806-1.844-51.36108 13.63902-11.19002 14.59003-12.99002 34.54306-9.28901 52.09009 2.936 14.77302 12.81302 28.55504 27.34204 33.69505 19.73003 6.00801 43.52707.91 56.01609-16.43503 11.89602 9.14802 24.06103 17.99103 36.12205 26.93705-14.24802 16.27102-34.02105 27.76404-55.51108 30.86104-29.82805 5.36101-63.7031-1.013-85.78414-22.94903-17.99103-17.72803-26.14504-43.63107-25.72004-68.50211-.325-25.37504 8.66101-51.68608 27.60104-69.10811"/><path d="m536.52184 611.60467c24.62704-5.78901 51.80509-2.65301 73.60012 10.60202 14.99602 9.08601 26.89604 23.15003 33.59405 39.34106 10.86702 25.33704 10.70502 55.02608-.041 80.36012-7.70901 18.03403-21.63303 33.45106-39.24006 42.23507-27.88304 13.92302-62.3911 13.56002-90.09414-.708-24.58704-12.89202-41.04007-38.69306-44.53907-65.9751-1.924-17.50403-1.379-35.79906 5.27901-52.33109 9.49001-26.85504 33.57305-47.71807 61.44109-53.52408m12.46402 38.56906c-10.60401 2.266-20.03503 9.02601-25.76404 18.21303-9.52801 15.48202-11.02701 35.15205-6.10901 52.45408 4.02701 14.73502 15.62303 27.64404 30.76005 31.18605 13.33802 2.651 28.47505 1.64 39.42206-7.20501 13.43802-10.11802 18.59803-27.64104 18.49603-43.83207-.285-13.33402-3.459-27.31904-12.42602-37.57906-10.50401-12.69202-28.73404-17.00003-44.37907-13.23702"/><path d="m0 612.25067c51.09708-.038 102.19716-.038 153.31324 0-.059 12.44502-.101 24.89104.02 37.33606-18.39203.222-36.81106.063-55.206086.102-.021 47.13307-.08 94.26615.022 141.39622-14.469022.019-28.960045 0-43.430068.019-.059-47.14907 0-94.32315-.039-141.47322-18.213029.12-36.426057.038-54.64108594.058-.05900009-12.46602-.02000003-24.95204-.03900006-37.43806"/><path d="m196.60131 612.21167c12.46502.159 24.93104-.285 37.37806.281 23.79804 59.69909 48.58707 118.99319 72.73111 178.55028-16.21202.101-32.42105.06-48.62907 0-2.99701-8.78201-6.57701-17.34303-9.51102-26.12504-23.96004.02-47.90207-.02-71.86211.02-3.21801 8.76301-6.75901 17.40203-9.91602 26.18804-15.37902-.061-30.74005-.022-46.09907-.022 24.99204-59.76009 50.87408-119.15219 75.90812-178.89228m-6.45601 117.41218c9.22801.143 18.43603-.667 27.68504-.626 5.80701.303 11.63502.426 17.44203-.282-7.54701-20.84503-14.60902-41.87206-21.67203-62.8781-7.91202 21.23004-15.60203 42.53907-23.45504 63.7861"/><path d="m54.700086 821.034c24.688039.08 49.380074-.122 74.069114.121 16.85803.687 35.51506 3.521 47.75808 16.27002 10.74501 10.72502 10.76701 27.52205 7.60801 41.38307-3.15701 11.37502-12.77002 19.32603-22.82504 24.61104 13.21302 2.145 26.12504 9.34901 32.94206 21.16703 8.86501 16.18803 7.97501 37.05206-1.39401 52.83808-10.98901 16.59603-32.31805 21.71404-51.03708 22.40004-29.04004.30502-58.080088.102-87.099134.102-.041-59.63909-.022-119.25419-.022-178.89228m41.142065 34.92605c0 11.83802.144 23.67604-.039 35.51906 11.737019-.265 23.676039 1.07 35.231059-1.562 14.32902-3.13601 15.84602-27.48105 1.538-31.79105-11.91802-3.50101-24.50704-1.81901-36.730059-2.16601m-.019 69.93911c.101 12.26502.082 24.50804 0 36.77206 16.898029-.607 34.199049 1.76 50.734079-2.61 13.07202-4.87801 12.54702-26.57304-.548-31.10605-16.20903-5.19901-33.49105-2.40801-50.186079-3.05601"/><path d="m217.34334 821.096c44.94807-.102 89.89314 0 134.83921-.063-.143 12.46702-.063 24.95304-.063 37.41806-30.33304.082-60.64909.021-90.96414.041.041 10.80701.101 21.63503-.04 32.46105 25.45804.486 50.99608-.77 76.43512.646-.486 12.16602.383 24.34604-.65 36.48806-25.23304-.059-50.47008 0-75.70412-.02.04 11.45201-.101 22.92903.082 34.40305 31.00105-.082 61.9861-.061 92.96715-.041-.12 12.48602-.102 24.97304 0 37.45606-45.63307.082-91.26915.24602-136.90322-.079.083-59.57709.102-119.15319.001-178.71028"/><path d="m375.37259 821.134c14.59002-.18 29.18405-.038 43.75407-.079-.041 47.13107-.123 94.28515.061 141.43522 26.28604-.14 52.59408-.038 78.90412-.06 0 12.50502.02 24.99404.02 37.49706-40.92006.063-81.81813.063-122.73819.02.101-59.61409.101-119.21519-.001-178.81328"/><path d="m519.52182 821.034c14.44702.021 28.89804 0 43.36507-.02.041 47.15207-.018 94.30215.023 141.45722 26.34804-.082 52.67608-.063 79.00212-.02-.08 12.50302 0 25.01104-.039 37.53806-40.77706-.019-81.53313-.019-122.29119 0 .022-59.65609.102-119.29519-.06-178.95528"/></g></svg>